<svg width="22" height="22" viewBox="0 0 22 22" fill="none" xmlns="http://www.w3.org/2000/svg">
<path d="M22 20.9V7.04038C22.0001 6.86039 21.9511 6.68312 21.8574 6.52413C21.7636 6.36515 21.6279 6.2293 21.4622 6.1285L11.6844 0.188653C11.4823 0.0657029 11.244 0 11 0C10.756 0 10.5177 0.0657029 10.3156 0.188653L0.537778 6.1285C0.372082 6.2293 0.236402 6.36515 0.14264 6.52413C0.0488774 6.68312 -0.000101302 6.86039 1.57309e-07 7.04038V20.9C1.57309e-07 21.1918 0.12877 21.4715 0.357981 21.6778C0.587192 21.8841 0.898069 22 1.22222 22H20.7778C21.1019 22 21.4128 21.8841 21.642 21.6778C21.8712 21.4715 22 21.1918 22 20.9ZM19.5556 19.8001H2.44444V7.62556L11 2.4282L19.5556 7.62556V19.8001Z" fill="#BABABA"/>
</svg>
